#!OML:ASF E:\motion texture\Top Level 1\Subject 1\Session 1\male.ASF
:FULLY-SPECIFIED
:DEGREES
623
root -16.0004 18.1698 6.61349 29.939 -83.9138 -20.7527
lowerback 1.46669 -1.46176 0.730769
upperback -1.76449 -1.90902 4.84485
thorax -2.49789 -0.958075 4.66477
lowerneck -10.3288 -10.7683 -11.4165
upperneck 11.486 -14.6249 11.7037
head 6.91357 -6.81646 4.08415
rclavicle 2.18663e-015 2.94201e-014
rhumerus -48.9779 -35.4349 -40.1112
rradius 17.0125
rwrist 16.3341
rhand -17.3588 -35.0668
rfingers 7.12502
rthumb 8.88914 -64.8596
lclavicle 2.18663e-015 2.94201e-014
lhumerus -30.257 19.9437 67.6856
lradius 33.1331
lwrist -17.3497
lhand -19.2193 23.6345
lfingers 7.12502
lthumb 7.09351 53.4956
rfemur -24.276 -0.781332 22.1408
rtibia 13.5167
rfoot 0.846904 -9.66406
rtoes 15.5105
lfemur -3.07341 -3.21715 -12.7788
ltibia 36.2009
lfoot 3.99673 1.53754
ltoes -22.0878
624
root -16.1322 18.181 6.58694 33.6132 -84.2656 -24.4487
lowerback 1.45986 -1.45425 0.908959
upperback -1.75639 -1.89785 4.9592
thorax -2.48861 -0.957275 4.68299
lowerneck -10.3113 -10.7387 -11.4182
upperneck 11.6952 -14.5891 11.5725
head 6.96232 -6.80618 4.04617
rclavicle 2.72335e-014 -1.27222e-014
rhumerus -47.5512 -35.0005 -42.0947
rradius 16.9728
rwrist 16.2795
rhand -17.2495 -34.6517
rfingers 7.12502
rthumb 8.99458 -64.4399
lclavicle 2.72335e-014 -1.27222e-014
lhumerus -29.7948 18.7449 68.651
lradius 33.8984
lwrist -16.8741
lhand -19.165 23.4158
lfingers 7.12502
lthumb 7.1459 53.2752
rfemur -23.8186 -0.765148 22.6536
rtibia 13.5073
rfoot 0.686394 -9.03021
rtoes 15.8457
lfemur -3.66492 -2.8089 -12.4595
ltibia 37.3586
lfoot 4.58007 1.61196
ltoes -21.5091
625
root -16.2631 18.1921 6.56074 37.7373 -84.5957 -28.6001
lowerback 1.45711 -1.44312 1.08359
upperback -1.74789 -1.88198 5.06787
thorax -2.48162 -0.954068 4.69733
lowerneck -10.2827 -10.7139 -11.4253
upperneck 11.8905 -14.5593 11.446
head 7.00637 -6.79954 4.01032
rclavicle -2.48481e-015 9.54166e-015
rhumerus -46.0674 -34.4577 -44.1683
rradius 16.9427
rwrist 16.1974
rhand -17.1329 -34.2126
rfingers 7.12502
rthumb 9.10711 -63.996
lclavicle -2.48481e-015 9.54166e-015
lhumerus -29.3637 17.5082 69.5978
lradius 34.6909
lwrist -16.4767
lhand -19.0784 23.1647
lfingers 7.12502
lthumb 7.22945 53.0212
rfemur -23.3518 -0.751767 23.1526
rtibia 13.5012
rfoot 0.494041 -8.40593
rtoes 16.1631
lfemur -4.27766 -2.39359 -12.1488
ltibia 38.511
lfoot 5.09174 1.67944
ltoes -20.938
626
root -16.3931 18.2028 6.53489 42.3598 -84.8987 -33.2552
lowerback 1.45785 -1.42878 1.25413
upperback -1.73888 -1.86194 5.17105
thorax -2.47636 -0.948708 4.70824
lowerneck -10.2416 -10.6943 -11.4383
upperneck 12.0702 -14.536 11.3252
head 7.04512 -6.79679 3.97698
rclavicle -1.61016e-014 -6.36111e-015
rhumerus -44.5364 -33.7948 -46.3216
rradius 16.9262
rwrist 16.0854
rhand -17.0086 -33.7456
rfingers 7.12502
rthumb 9.22703 -63.5238
lclavicle -1.61016e-014 -6.36111e-015
lhumerus -28.9651 16.2404 70.5224
lradius 35.5108
lwrist -16.1584
lhand -18.9666 22.879
lfingers 7.12502
lthumb 7.33739 52.7318
rfemur -22.8758 -0.737069 23.637
rtibia 13.5012
rfoot 0.262929 -7.79141
rtoes 16.4793
lfemur -4.91008 -1.97215 -11.8464
ltibia 39.6522
lfoot 5.52655 1.73976
ltoes -20.3826
627
root -16.5223 18.213 6.50945 47.5076 -85.1686 -38.4409
lowerback 1.46157 -1.41151 1.42094
upperback -1.72919 -1.83809 5.26819
thorax -2.47239 -0.941381 4.71497
lowerneck -10.1869 -10.6803 -11.4576
upperneck 12.2327 -14.5199 11.2105
head 7.07787 -6.79826 3.94637
rclavicle -1.22253e-014 6.36111e-015
rhumerus -42.969 -32.9966 -48.5457
rradius 16.9285
rwrist 15.9344
rhand -16.8797 -33.2599
rfingers 7.12502
rthumb 9.35142 -63.0325
lclavicle -1.22253e-014 6.36111e-015
lhumerus -28.6004 14.949 71.4213
lradius 36.3588
lwrist -15.9198
lhand -18.8305 22.5613
lfingers 7.12502
lthumb 7.46872 52.4094
rfemur -22.3908 -0.720548 24.1057
rtibia 13.507
rfoot 0.00405054 -7.18363
rtoes 16.7857
lfemur -5.55857 -1.5476 -11.5541
ltibia 40.7746
lfoot 5.88212 1.79278
ltoes -19.8449
628
root -16.6505 18.2229 6.48438 53.1703 -85.4001 -44.1462
lowerback 1.46688 -1.3916 1.58165
upperback -1.71862 -1.81088 5.35885
thorax -2.46859 -0.932263 4.71831
lowerneck -10.1162 -10.6728 -11.4857
upperneck 12.3758 -14.5122 11.104
head 7.10406 -6.80455 3.9195
rclavicle -4.87022e-015 1.74931e-014
rhumerus -41.3775 -32.0532 -50.8259
rradius 16.9528
rwrist 15.7389
rhand -16.7483 -32.7573
rfingers 7.12502
rthumb 9.47818 -62.5241
lclavicle -4.87022e-015 1.74931e-014
lhumerus -28.2675 13.644 72.2921
lradius 37.2318
lwrist -15.7637
lhand -18.6645 22.2246
lfingers 7.12502
lthumb 7.629 52.067
rfemur -21.8981 -0.698383 24.5551
rtibia 13.5163
rfoot -0.275994 -6.58769
rtoes 17.0882
lfemur -6.2224 -1.12249 -11.2741
ltibia 41.8726
lfoot 6.15554 1.83815
ltoes -19.3303
629
root -16.7779 18.2322 6.4597 59.3211 -85.5874 -50.3439
lowerback 1.4753 -1.36981 1.73538
upperback -1.7081 -1.78119 5.44341
thorax -2.46669 -0.921747 4.71926
lowerneck -10.0312 -10.6708 -11.5223
upperneck 12.5004 -14.5119 11.0065
head 7.12411 -6.81501 3.89664
rclavicle -4.96962e-016 2.06736e-014
rhumerus -39.7786 -30.9584 -53.1426
rradius 17.004
rwrist 15.5006
rhand -16.6142 -32.2411
rfingers 7.12502
rthumb 9.60756 -62.002
lclavicle -4.96962e-016 2.06736e-014
lhumerus -27.9691 12.3336 73.1322
lradius 38.1314
lwrist -15.6861
lhand -18.478 21.8654
lfingers 7.12502
lthumb 7.80898 51.7012
rfemur -21.3976 -0.669609 24.9849
rtibia 13.5261
rfoot -0.573077 -6.00338
rtoes 17.3518
lfemur -6.89912 -0.700246 -11.0075
ltibia 42.9394
lfoot 6.3462 1.87743
ltoes -18.8489
630
root -16.9044 18.2409 6.4354 65.9032 -85.7242 -56.9769
lowerback 1.48637 -1.34571 1.88375
upperback -1.69797 -1.74839 5.52169
thorax -2.46684 -0.909546 4.71668
lowerneck -9.9311 -10.6761 -11.5659
upperneck 12.6065 -14.5212 10.9161
head 7.13789 -6.83081 3.8767
rclavicle 1.27222e-014 -7.79236e-014
rhumerus -38.1887 -29.7075 -55.4778
rradius 17.0851
rwrist 15.2168
rhand -16.4792 -31.7142
rfingers 7.12502
rthumb 9.73786 -61.4691
lclavicle 1.27222e-014 -7.79236e-014
lhumerus -27.7032 11.0254 73.9401
lradius 39.0531
lwrist -15.6829
lhand -18.2758 21.4794
lfingers 7.12502
lthumb 8.00418 51.3079
rfemur -20.8896 -0.630324 25.3958
rtibia 13.5331
rfoot -0.879585 -5.43578
rtoes 17.5916
lfemur -7.58682 -0.282166 -10.753
ltibia 43.9689
lfoot 6.45292 1.91112
ltoes -18.4016
631
root -17.03 18.249 6.41156 72.7952 -85.8053 -63.9233
lowerback 1.49905 -1.31979 2.0278
upperback -1.68783 -1.71315 5.59404
thorax -2.46802 -0.896026 4.71032
lowerneck -9.81752 -10.6881 -11.6207
upperneck 12.6952 -14.5399 10.8371
head 7.14659 -6.85154 3.86165
rclavicle -2.08724e-015 7.15625e-014
rhumerus -36.6226 -28.2964 -57.8146
rradius 17.2033
rwrist 14.8871
rhand -16.3432 -31.1836
rfingers 7.12502
rthumb 9.86906 -60.9323
lclavicle -2.08724e-015 7.15625e-014
lhumerus -27.4709 9.72578 74.7153
lradius 39.999
lwrist -15.7481
lhand -18.0594 21.0758
lfingers 7.12502
lthumb 8.21298 50.8962
rfemur -20.3743 -0.581436 25.7889
rtibia 13.5355
rfoot -1.18726 -4.88884
rtoes 17.804
lfemur -8.28303 0.129647 -10.5104
ltibia 44.9548
lfoot 6.47382 1.94005
ltoes -17.9992
632
root -17.1549 18.2565 6.38822 79.8207 -85.8282 -71.007
lowerback 1.51343 -1.29245 2.16754
upperback -1.67755 -1.67596 5.66042
thorax -2.47009 -0.881427 4.70012
lowerneck -9.6903 -10.7079 -11.684
upperneck 12.7656 -14.5689 10.766
head 7.14957 -6.87775 3.84989
rclavicle -1.63003e-014 -1.11319e-014
rhumerus -35.0945 -26.7262 -60.1344
rradius 17.3618
rwrist 14.5096
rhand -16.2066 -30.6532
rfingers 7.12502
rthumb 10.0008 -60.3956
lclavicle -1.63003e-014 -1.11319e-014
lhumerus -27.2711 8.44393 75.457
lradius 40.9659
lwrist -15.8769
lhand -17.8339 20.6554
lfingers 7.12502
lthumb 8.43064 50.4671
rfemur -19.8512 -0.524627 26.1639
rtibia 13.5314
rfoot -1.49092 -4.36736
rtoes 17.9902
lfemur -8.98402 0.532688 -10.2808
ltibia 45.8901
lfoot 6.41302 1.96656
ltoes -17.6291
633
root -17.279 18.2635 6.36538 86.7759 -85.7919 -78.0222
lowerback 1.52782 -1.26384 2.30421
upperback -1.66712 -1.6371 5.7208
thorax -2.47212 -0.86591 4.68531
lowerneck -9.55109 -10.7361 -11.7561
upperneck 12.8167 -14.6092 10.7043
head 7.14705 -6.90978 3.84171
rclavicle -2.6339e-014 7.79236e-014
rhumerus -33.6172 -25.0006 -62.4209
rradius 17.5655
rwrist 14.0849
rhand -16.0693 -30.1249
rfingers 7.12502
rthumb 10.1333 -59.8609
lclavicle -2.6339e-014 7.79236e-014
lhumerus -27.0995 7.18631 76.1655
lradius 41.95
lwrist -16.0647
lhand -17.6007 20.2256
lfingers 7.12502
lthumb 8.6557 50.0281
rfemur -19.3241 -0.460203 26.5224
rtibia 13.5227
rfoot -1.79013 -3.87154
rtoes 18.1499
lfemur -9.69096 0.924769 -10.0632
ltibia 46.7706
lfoot 6.27338 1.99177
ltoes -17.2904
